<svg width="42" height="42" viewBox="0 0 42 42" fill="none" xmlns="http://www.w3.org/2000/svg">
<path d="M21 36C15.7917 36 11.1875 33.3333 8.5 29.3333C8.5625 25.1666 16.8333 22.875 21 22.875C25.1667 22.875 33.4375 25.1666 33.5 29.3333C30.8125 33.3333 26.2083 36 21 36ZM21 6.41663C22.6576 6.41663 24.2473 7.07511 25.4194 8.24721C26.5915 9.41931 27.25 11.009 27.25 12.6666C27.25 14.3242 26.5915 15.9139 25.4194 17.086C24.2473 18.2581 22.6576 18.9166 21 18.9166C19.3424 18.9166 17.7527 18.2581 16.5806 17.086C15.4085 15.9139 14.75 14.3242 14.75 12.6666C14.75 11.009 15.4085 9.41931 16.5806 8.24721C17.7527 7.07511 19.3424 6.41663 21 6.41663ZM21 0.166626C18.2641 0.166626 15.555 0.705496 13.0274 1.75247C10.4998 2.79944 8.20316 4.33401 6.26861 6.26857C2.3616 10.1756 0.166666 15.4746 0.166666 21C0.166666 26.5253 2.3616 31.8243 6.26861 35.7313C8.20316 37.6659 10.4998 39.2005 13.0274 40.2475C15.555 41.2944 18.2641 41.8333 21 41.8333C26.5253 41.8333 31.8244 39.6384 35.7314 35.7313C39.6384 31.8243 41.8333 26.5253 41.8333 21C41.8333 9.47913 32.4583 0.166626 21 0.166626Z" fill="black"/>
</svg>
